<?xml version="1.0" encoding="UTF-8"?>
<svg id="Layer_1" xmlns="http://www.w3.org/2000/svg" version="1.1" viewBox="0 0 567.41 141.04">
  <!-- Generator: Adobe Illustrator 29.8.4, SVG Export Plug-In . SVG Version: 2.1.1 Build 6)  -->
  <defs>
    <style>
      .st0 {
        fill: #1c434b;
      }
    </style>
  </defs>
  <g>
    <polygon class="st0" points="88.85 .08 97.87 .08 97.87 50.12 127.11 50.12 127.11 58.08 88.85 58.08 88.85 .08"/>
    <g>
      <path class="st0" d="M131.49,43.95V15.92h8.53v26.48c0,3.52.6,6.03,1.79,7.51,1.19,1.49,3.09,2.23,5.69,2.23,2.98,0,5.61-1.06,7.88-3.17,1.19-1.08,2.1-2.23,2.72-3.45.62-1.22.93-2.78.93-4.67V15.92h8.53v42.16h-8.37v-6.25c-2,2.6-4.17,4.51-6.5,5.73-2.33,1.22-4.85,1.83-7.56,1.83-4.71,0-8.16-1.3-10.36-3.9-2.19-2.6-3.29-6.44-3.29-11.53"/>
      <path class="st0" d="M175.13,15.92h8.37v6.09c2.11-2.65,4.37-4.55,6.78-5.69,2.41-1.14,4.91-1.71,7.51-1.71,4.71,0,8.23,1.31,10.56,3.94,2.33,2.63,3.49,6.43,3.49,11.41v28.11h-8.45v-26.48c0-3.52-.65-6.02-1.95-7.51-1.3-1.49-3.28-2.23-5.93-2.23-1.46,0-2.91.27-4.35.81-1.44.54-2.75,1.35-3.94,2.44-1.19,1.03-2.1,2.17-2.72,3.41-.62,1.25-.93,2.82-.93,4.71v24.86h-8.45V15.92Z"/>
      <path class="st0" d="M217.69,37.29c0-6.99,1.65-12.51,4.96-16.57,3.3-4.06,7.82-6.09,13.57-6.09,2.22,0,4.43.45,6.62,1.34,2.19.89,4.21,2.51,6.05,4.83V.08h8.53v58h-8.29v-5.77c-1.73,2.27-3.7,4.02-5.89,5.24-2.19,1.22-4.81,1.83-7.84,1.83-4.01,0-7.33-.96-9.95-2.88-2.63-1.92-4.58-4.55-5.85-7.88-1.27-3.33-1.91-7.11-1.91-11.33M226.46,37.04c0,3.85.53,6.88,1.58,9.1,1.06,2.22,2.41,3.81,4.06,4.75,1.65.95,3.37,1.42,5.16,1.42,3.57,0,6.44-1.19,8.61-3.58,2.17-2.38,3.25-5.82,3.25-10.32v-2.6c0-4.93-1.04-8.53-3.13-10.8-2.09-2.27-4.83-3.41-8.24-3.41-3.2,0-5.88,1.18-8.04,3.53-2.17,2.36-3.25,6.32-3.25,11.9"/>
      <path class="st0" d="M264.92,0h8.69v8.69h-8.69V0ZM265.08,15.92h8.53v42.16h-8.53V15.92Z"/>
      <path class="st0" d="M281.26,15.92h8.37v6.09c2.11-2.65,4.37-4.55,6.78-5.69,2.41-1.14,4.92-1.71,7.51-1.71,4.71,0,8.23,1.31,10.56,3.94,2.33,2.63,3.49,6.43,3.49,11.41v28.11h-8.45v-26.48c0-3.52-.65-6.02-1.95-7.51-1.3-1.49-3.28-2.23-5.93-2.23-1.46,0-2.91.27-4.35.81-1.44.54-2.75,1.35-3.94,2.44-1.19,1.03-2.1,2.17-2.72,3.41-.62,1.25-.93,2.82-.93,4.71v24.86h-8.45V15.92Z"/>
      <polygon class="st0" points="343.16 .08 354.13 .08 371.68 47.44 389.55 .08 400.19 .08 400.19 58.08 391.82 58.08 391.82 14.3 375.01 58.08 367.94 58.08 351.37 14.38 351.37 58.08 343.16 58.08 343.16 .08"/>
      <path class="st0" d="M408.6,0h8.69v8.69h-8.69V0ZM408.76,15.92h8.53v42.16h-8.53V15.92Z"/>
      <path class="st0" d="M424.95,15.92h8.37v6.09c2.11-2.65,4.37-4.55,6.78-5.69,2.41-1.14,4.92-1.71,7.51-1.71,4.71,0,8.23,1.31,10.56,3.94,2.33,2.63,3.49,6.43,3.49,11.41v28.11h-8.45v-26.48c0-3.52-.65-6.02-1.95-7.51-1.3-1.49-3.28-2.23-5.93-2.23-1.46,0-2.91.27-4.35.81-1.44.54-2.75,1.35-3.94,2.44-1.19,1.03-2.1,2.17-2.72,3.41-.62,1.25-.93,2.82-.93,4.71v24.86h-8.45V15.92Z"/>
      <path class="st0" d="M468.88,0h8.69v8.69h-8.69V0ZM469.04,15.92h8.53v42.16h-8.53V15.92Z"/>
      <path class="st0" d="M485.22,15.92h8.37v6.09c2.11-2.65,4.37-4.55,6.78-5.69,2.41-1.14,4.92-1.71,7.51-1.71,4.71,0,8.23,1.31,10.56,3.94,2.33,2.63,3.49,6.43,3.49,11.41v28.11h-8.45v-26.48c0-3.52-.65-6.02-1.95-7.51-1.3-1.49-3.28-2.23-5.93-2.23-1.46,0-2.91.27-4.35.81-1.44.54-2.75,1.35-3.94,2.44-1.19,1.03-2.1,2.17-2.72,3.41-.62,1.25-.93,2.82-.93,4.71v24.86h-8.45V15.92Z"/>
      <path class="st0" d="M558.88,54.51v-4.31c-1.57,2.17-3.48,3.86-5.73,5.08-2.25,1.22-4.86,1.83-7.84,1.83-4.01,0-7.33-.93-9.95-2.8-2.63-1.87-4.58-4.4-5.85-7.6-1.27-3.19-1.91-6.77-1.91-10.72,0-4.28.74-8.01,2.23-11.21,1.49-3.2,3.63-5.69,6.42-7.47,2.79-1.79,6.08-2.68,9.87-2.68,2.33,0,4.6.46,6.82,1.38,2.22.92,4.25,2.63,6.09,5.12v-5.2h8.37v35.66c0,4.77-.54,8.88-1.63,12.35-1.08,3.47-3.02,6.13-5.81,8-2.79,1.87-6.76,2.8-11.9,2.8-5.63,0-10.05-1.04-13.24-3.13-3.2-2.09-5.06-5.43-5.61-10.03h8.37c.49,2.33,1.53,4.01,3.13,5.04,1.6,1.03,4.05,1.54,7.35,1.54,4.11,0,6.95-1.15,8.49-3.45,1.54-2.3,2.31-5.7,2.31-10.2M556.28,25.39c-1.84-2.52-4.68-3.78-8.53-3.78-3.2,0-5.88,1.13-8.04,3.37-2.17,2.25-3.25,5.89-3.25,10.93,0,3.41.52,6.16,1.54,8.24,1.03,2.09,2.38,3.59,4.06,4.51,1.68.92,3.44,1.38,5.28,1.38,3.95,0,6.89-1.26,8.81-3.78,1.92-2.52,2.88-5.73,2.88-9.63v-1.3c0-4.11-.92-7.43-2.76-9.95"/>
      <path class="st0" d="M37.76,19.52c.96-1.88,1.51-4,1.51-6.26,0-6.38-4.35-11.73-7.41-13.27L0,58.08h10.57c3.85,0,7.4-2.11,9.24-5.5l17.95-33.06Z"/>
      <path class="st0" d="M55.7,43.37l-5.37.04-22.89.07c-1.25,5.09,1.02,10.57,5.85,13.18,1.71.92,3.54,1.38,5.35,1.42l25.05-.05-7.99-14.67Z"/>
    </g>
  </g>
  <g>
    <path class="st0" d="M252.55,116.81c0-5.24.91-9.68,2.73-13.31s4.31-6.41,7.47-8.31c3.16-1.91,6.78-2.86,10.85-2.86,3.85,0,7.02.64,9.51,1.92,2.49,1.28,4.46,3.06,5.91,5.36s2.48,5,3.09,8.12l-7.08,1.1c-.74-3.2-1.94-5.71-3.6-7.53-1.67-1.82-4.3-2.73-7.89-2.73-2.86,0-5.29.75-7.31,2.24-2.01,1.49-3.54,3.6-4.58,6.3s-1.56,5.9-1.56,9.58c0,5.5,1.18,9.89,3.54,13.18,2.36,3.29,5.7,4.94,10.03,4.94,2.64,0,4.76-.44,6.36-1.33s2.83-2.12,3.67-3.7c.84-1.58,1.42-3.41,1.72-5.49h7.34c-.3,3.25-1.21,6.13-2.73,8.64-1.52,2.51-3.64,4.49-6.36,5.94-2.73,1.45-6.1,2.18-10.13,2.18-4.33,0-8.06-.95-11.2-2.86-3.14-1.91-5.55-4.67-7.24-8.28-1.69-3.62-2.53-7.98-2.53-13.09Z"/>
    <path class="st0" d="M297.28,130.58c0-2.25.48-4.1,1.43-5.55.95-1.45,2.24-2.59,3.86-3.41,1.62-.82,3.45-1.42,5.49-1.79,2.03-.37,4.13-.59,6.3-.68l5.59-.2v-1.3c0-2.64-.56-4.53-1.69-5.68-1.13-1.14-2.94-1.72-5.46-1.72s-4.22.41-5.39,1.24-1.93,1.97-2.27,3.44l-6.17-.65c.61-3.16,2.09-5.48,4.45-6.95,2.36-1.47,5.57-2.21,9.64-2.21,4.89,0,8.37,1.14,10.42,3.41,2.06,2.27,3.08,5.49,3.08,9.65v21.69h-6.49v-4.35c-1.26,1.43-2.79,2.64-4.61,3.64-1.82,1-4.05,1.49-6.69,1.49-3.42,0-6.19-.85-8.31-2.53-2.12-1.69-3.18-4.2-3.18-7.53ZM304.04,130.32c0,1.56.48,2.8,1.43,3.73.95.93,2.49,1.4,4.61,1.4,2.94,0,5.32-.73,7.14-2.21s2.73-3.62,2.73-6.43v-3.38l-5.2.2c-2.77.09-4.93.4-6.49.94-1.56.54-2.65,1.29-3.28,2.24-.63.95-.94,2.12-.94,3.51Z"/>
    <path class="st0" d="M354.84,130.84c0-1.25-.35-2.32-1.04-3.18-.69-.87-2.19-1.47-4.48-1.82l-4.16-.65c-3.9-.65-6.85-1.7-8.87-3.15-2.01-1.45-3.02-3.73-3.02-6.85,0-2.12.59-3.93,1.79-5.42,1.19-1.49,2.81-2.64,4.87-3.44,2.06-.8,4.41-1.2,7.05-1.2,3.25,0,5.82.41,7.73,1.23,1.91.82,3.34,1.94,4.32,3.34.97,1.41,1.66,3.02,2.05,4.84l-6.17.84c-.56-1.69-1.36-2.96-2.4-3.83-1.04-.87-2.84-1.3-5.39-1.3-2.77,0-4.69.47-5.75,1.4-1.06.93-1.59,1.98-1.59,3.15,0,1.3.39,2.32,1.17,3.05.78.74,2.36,1.3,4.74,1.69l4.68.78c4.07.69,6.97,1.84,8.7,3.44s2.6,3.96,2.6,7.08c0,2.94-1.15,5.36-3.44,7.24-2.3,1.88-5.76,2.83-10.39,2.83-2.81,0-5.35-.36-7.6-1.07s-4.06-1.88-5.42-3.51c-1.36-1.62-2.13-3.77-2.31-6.46h6.49c.35,2.12,1.24,3.63,2.7,4.51,1.45.89,3.43,1.33,5.94,1.33,2.64,0,4.5-.44,5.59-1.33,1.08-.89,1.62-2.07,1.62-3.54Z"/>
    <path class="st0" d="M366.59,123.31c0-3.9.68-7.2,2.05-9.9,1.36-2.71,3.26-4.76,5.68-6.17,2.43-1.41,5.22-2.11,8.38-2.11,3.46,0,6.31.7,8.54,2.11,2.23,1.41,3.89,3.36,4.97,5.85s1.62,5.36,1.62,8.6v2.99h-24.42c.17,3.46,1.03,6.16,2.57,8.08,1.54,1.93,3.78,2.89,6.72,2.89,2.55,0,4.45-.49,5.68-1.46s2.07-2.31,2.5-3.99h6.43c-.56,3.33-2.05,5.95-4.45,7.86-2.4,1.9-5.79,2.86-10.16,2.86-5.15,0-9.12-1.56-11.92-4.68-2.79-3.12-4.19-7.43-4.19-12.92ZM374.71,115c-.65,1.47-1.06,3.16-1.23,5.07h17.66c-.17-3.2-.85-5.65-2.04-7.34-1.19-1.69-3.34-2.53-6.46-2.53-2.08,0-3.76.43-5.03,1.3-1.28.87-2.24,2.03-2.89,3.51Z"/>
    <path class="st0" d="M404.6,106.16h6.69v5c1.26-1.78,2.71-3.15,4.35-4.13,1.64-.97,3.44-1.46,5.39-1.46.61,0,1.16.03,1.66.1.5.06.96.14,1.4.23l-.84,6.1c-.43-.09-.89-.16-1.36-.23-.48-.07-.97-.1-1.49-.1-1.04,0-2.08.17-3.12.52s-2.03.91-2.99,1.69c-.91.82-1.62,1.75-2.14,2.79s-.78,2.25-.78,3.64v19.55h-6.75v-33.7Z"/>
    <path class="st0" d="M426.75,123.11c0-3.68.68-6.86,2.05-9.55,1.36-2.68,3.29-4.76,5.78-6.23,2.49-1.47,5.42-2.21,8.8-2.21,5.15,0,9.18,1.59,12.08,4.77,2.9,3.18,4.35,7.5,4.35,12.95s-1.48,9.99-4.45,13.22c-2.97,3.23-7.02,4.84-12.18,4.84s-9.23-1.58-12.11-4.74-4.32-7.51-4.32-13.05ZM433.83,122.98c0,3.68.74,6.66,2.21,8.93,1.47,2.27,3.87,3.41,7.21,3.41s5.75-1.14,7.24-3.44c1.49-2.29,2.24-5.28,2.24-8.96s-.75-6.53-2.24-8.8c-1.49-2.27-3.91-3.41-7.24-3.41s-5.68,1.14-7.18,3.41c-1.49,2.27-2.24,5.23-2.24,8.86Z"/>
    <path class="st0" d="M466.44,106.16h6.69v4.87c1.69-2.12,3.5-3.64,5.42-4.55,1.93-.91,3.93-1.36,6.01-1.36,3.77,0,6.58,1.05,8.44,3.15,1.86,2.1,2.79,5.14,2.79,9.12v22.47h-6.75v-21.17c0-2.81-.52-4.81-1.56-6.01-1.04-1.19-2.62-1.78-4.74-1.78-1.17,0-2.33.22-3.47.65-1.15.43-2.2,1.08-3.15,1.95-.95.82-1.68,1.73-2.18,2.73s-.75,2.25-.75,3.77v19.87h-6.75v-33.7Z"/>
    <path class="st0" d="M502.27,123.31c0-3.9.68-7.2,2.05-9.9,1.36-2.71,3.26-4.76,5.68-6.17,2.43-1.41,5.22-2.11,8.38-2.11,3.46,0,6.31.7,8.54,2.11,2.23,1.41,3.89,3.36,4.97,5.85s1.62,5.36,1.62,8.6v2.99h-24.42c.17,3.46,1.03,6.16,2.57,8.08,1.54,1.93,3.78,2.89,6.72,2.89,2.55,0,4.45-.49,5.68-1.46s2.07-2.31,2.5-3.99h6.43c-.56,3.33-2.05,5.95-4.45,7.86-2.4,1.9-5.79,2.86-10.16,2.86-5.15,0-9.12-1.56-11.92-4.68-2.79-3.12-4.19-7.43-4.19-12.92ZM510.39,115c-.65,1.47-1.06,3.16-1.23,5.07h17.66c-.17-3.2-.85-5.65-2.04-7.34-1.19-1.69-3.34-2.53-6.46-2.53-2.08,0-3.76.43-5.03,1.3-1.28.87-2.24,2.03-2.89,3.51Z"/>
    <path class="st0" d="M560.59,130.84c0-1.25-.35-2.32-1.04-3.18-.69-.87-2.19-1.47-4.48-1.82l-4.16-.65c-3.9-.65-6.85-1.7-8.87-3.15-2.01-1.45-3.02-3.73-3.02-6.85,0-2.12.59-3.93,1.79-5.42,1.19-1.49,2.81-2.64,4.87-3.44,2.06-.8,4.41-1.2,7.05-1.2,3.25,0,5.82.41,7.73,1.23,1.91.82,3.34,1.94,4.32,3.34.97,1.41,1.66,3.02,2.05,4.84l-6.17.84c-.56-1.69-1.36-2.96-2.4-3.83-1.04-.87-2.84-1.3-5.39-1.3-2.77,0-4.69.47-5.75,1.4-1.06.93-1.59,1.98-1.59,3.15,0,1.3.39,2.32,1.17,3.05.78.74,2.36,1.3,4.74,1.69l4.68.78c4.07.69,6.97,1.84,8.7,3.44s2.6,3.96,2.6,7.08c0,2.94-1.15,5.36-3.44,7.24-2.3,1.88-5.76,2.83-10.39,2.83-2.81,0-5.35-.36-7.6-1.07s-4.06-1.88-5.42-3.51c-1.36-1.62-2.13-3.77-2.31-6.46h6.49c.35,2.12,1.24,3.63,2.7,4.51,1.45.89,3.43,1.33,5.94,1.33,2.64,0,4.5-.44,5.59-1.33,1.08-.89,1.62-2.07,1.62-3.54Z"/>
  </g>
</svg>